<svg width="241" height="80" viewBox="0 0 241 80" fill="none" xmlns="http://www.w3.org/2000/svg">
<g clip-path="url(#clip0_62_1358)">
<path d="M40 80C62.0914 80 80 62.0914 80 40C80 17.9086 62.0914 0 40 0C17.9086 0 0 17.9086 0 40C0 62.0914 17.9086 80 40 80Z" fill="#F5DF4D"/>
<path d="M76.4738 56.4435C78.7383 51.4279 79.9991 45.861 79.9991 40C80 17.9085 62.0915 0 40 0C34.139 0 28.5722 1.26075 23.5565 3.52522C48.794 11.291 68.709 31.205 76.4738 56.4435Z" fill="#DDC945"/>
<path d="M25.6873 29.8592H28.2948V22.1559H30.3618V33.0746H28.2948V32.1501H20.9971V33.0746H18.9301V22.1559H20.9971V29.8592H23.6212V18.9601H25.6873V29.8592Z" fill="#939597"/>
<path d="M23.0434 39.4282H30.3196V41.7201H29.5582V44.0695C29.5582 44.7634 29.5006 45.3694 29.3862 45.8893C29.2709 46.4093 29.0793 46.8432 28.8155 47.1892C28.5506 47.5361 28.2046 47.8 27.7785 47.9788C27.3524 48.1587 26.8334 48.2486 26.2226 48.2486H25.9284L25.4447 45.9568H26.1874C26.7533 45.9568 27.1354 45.8033 27.3368 45.4955C27.5391 45.1866 27.6407 44.7116 27.6407 44.0705V41.721H23.0424V43.8008C23.0424 44.6227 22.9525 45.4437 22.7736 46.2656C22.5948 47.0865 22.328 47.8635 21.9703 48.5955L20.1896 47.6329C20.5248 47.0299 20.7633 46.4161 20.9069 45.7935C21.0516 45.171 21.1239 44.5123 21.1239 43.8193V41.7201H18.9279V39.4282H21.1239V34.7302H23.0424V39.4282H23.0434Z" fill="#939597"/>
<path d="M18.9288 62.5156L24.0911 50.2491L25.905 51.1737L21.724 60.9939L26.8501 59.4917L25.3723 55.8912L27.2234 54.9862L30.6401 63.1508L28.8067 64.0558L27.7385 61.591L19.6951 63.8056L18.9288 62.5156Z" fill="#939597"/>
<path d="M30.6401 71.4307H25.9998V72.625C25.9998 73.2544 25.9539 73.9601 25.8571 74.7429C25.7623 75.5257 25.5434 76.2773 25.2013 76.9956C24.8573 77.7149 24.3462 78.3502 23.6689 78.9024C22.9906 79.4546 22.0582 79.8211 20.8776 79.9999L20.3078 77.6895C21.0662 77.6895 21.6653 77.5195 22.1032 77.1794C22.541 76.8393 22.8694 76.4122 23.0883 75.8981C23.3073 75.385 23.4411 74.8367 23.4929 74.2523C23.5447 73.6688 23.5692 73.1264 23.5692 72.626V71.4317H18.9288V69.1399H23.5692V65.7124H25.9988V69.1399H30.6392V71.4307H30.6401Z" fill="#939597"/>
<path d="M32.24 22.4081L33.4382 18.9601L33.8604 19.2201L32.8889 21.98L34.0793 21.5578L33.7363 20.5463L34.1663 20.2912L34.9599 22.5869L34.5338 22.8411L34.2865 22.1481L32.4179 22.7707L32.24 22.4081Z" fill="#939597"/>
<path d="M32.7756 29.2337H32.24V25.7427H33.272V25.2667H33.8125V25.7427H34.9599V26.3867H34.8446V28.0589C34.8446 28.2534 34.828 28.4245 34.7967 28.5701C34.7644 28.7167 34.7116 28.8379 34.6374 28.9356C34.5631 29.0333 34.4663 29.1076 34.3481 29.1575C34.2289 29.2083 34.0842 29.2337 33.9142 29.2337H33.8418L33.707 28.5896H33.9044C34.0617 28.5896 34.1692 28.5466 34.2249 28.4596C34.2816 28.3727 34.31 28.2398 34.31 28.0589V26.3867H32.7765V29.2337H32.7756Z" fill="#939597"/>
<path d="M32.5254 32.1188H34.6745V32.7628H33.8594V35.085H34.9599V35.729H32.24V35.085H33.3356V32.7628H32.5254V32.1188Z" fill="#939597"/>
<path d="M32.7042 41.9487H32.24V38.744H33.315V38.2573H33.7627V38.744H34.9599V39.393H34.8387V40.9899C34.8387 41.1131 34.8299 41.2333 34.8113 41.3525C34.7937 41.4717 34.7615 41.5802 34.7146 41.677C34.6686 41.7747 34.6061 41.8568 34.5269 41.9233C34.4468 41.9907 34.3471 42.0347 34.2279 42.0562L34.1106 41.4121C34.2025 41.3945 34.2699 41.3506 34.3109 41.2821C34.353 41.2137 34.3735 41.116 34.3735 40.9899V39.393H33.7627V42.4843H33.315V39.393H32.7042V41.9487Z" fill="#939597"/>
<path d="M32.3279 45.1094H34.4331V45.7534H33.1499V46.3926H34.9599V47.0425H33.1499V47.5459C33.1499 47.7257 33.1753 47.8596 33.2242 47.9466C33.274 48.0326 33.3708 48.0766 33.5144 48.0766H34.8016L34.6833 48.7206H33.5056C33.3502 48.7206 33.2183 48.6952 33.1108 48.6444C33.0023 48.5936 32.9143 48.5193 32.8469 48.4225C32.7795 48.3258 32.7306 48.2036 32.7013 48.057C32.672 47.9104 32.6573 47.7404 32.6573 47.5459V47.0425H32.24V46.3926H32.6573V45.7534H32.3279V45.1094Z" fill="#939597"/>
<path d="M52.8518 18.7861C44.4136 18.7861 37.5723 25.6264 37.5723 34.0656C37.5723 42.5048 44.4136 49.3451 52.8518 49.3451C61.29 49.3451 68.1313 42.5048 68.1313 34.0656C68.1313 25.6264 61.29 18.7861 52.8518 18.7861ZM52.8518 43.5086C47.6368 43.5086 43.4089 39.2806 43.4089 34.0656C43.4089 28.8506 47.6368 24.6227 52.8518 24.6227C58.0668 24.6227 62.2947 28.8506 62.2947 34.0656C62.2947 39.2806 58.0678 43.5086 52.8518 43.5086Z" fill="#939597"/>
<path d="M55.0997 39.9023C58.3231 39.9023 60.9362 37.2892 60.9362 34.0657C60.9362 30.8423 58.3231 28.2291 55.0997 28.2291C51.8762 28.2291 49.2631 30.8423 49.2631 34.0657C49.2631 37.2892 51.8762 39.9023 55.0997 39.9023Z" fill="#939597"/>
</g>
<path d="M91.417 34.0015V8.3374L94.9326 6.79932L94.9106 33.9136C94.9106 34.646 95.1523 35.2686 95.6357 35.7812C96.1191 36.2939 96.6904 36.5503 97.3496 36.5503C98.0381 36.5503 98.624 36.2939 99.1074 35.7812C99.6055 35.2539 99.8545 34.6387 99.8545 33.9355C99.8545 33.9355 99.8545 33.9282 99.8545 33.9136L99.8765 8.3374L103.392 6.79932L103.37 33.9136C103.37 34.646 103.612 35.2686 104.095 35.7812C104.579 36.2939 105.15 36.5503 105.809 36.5503C106.483 36.5503 107.069 36.2939 107.567 35.7812C108.065 35.2686 108.314 34.646 108.314 33.9136L108.336 8.3374L111.852 6.79932V34.0234C111.852 35.6641 111.266 37.0703 110.094 38.2422C108.922 39.4141 107.508 40 105.853 40C104.139 40 102.726 39.4287 101.612 38.2861C100.44 39.4287 99.0342 40 97.3936 40C95.6357 40 94.2075 39.4287 93.1089 38.2861C91.9956 37.1289 91.4316 35.7007 91.417 34.0015ZM116.993 40V8.3374L120.509 6.79932V21.6528H133.297V8.3374L136.812 6.79932V38.4619L133.297 40V25.1685H120.509V38.4619L116.993 40ZM142.262 40V16.5771C142.262 13.8818 143.229 11.582 145.162 9.67773C147.096 7.75879 149.432 6.79932 152.171 6.79932C154.911 6.79932 157.247 7.75879 159.181 9.67773C161.114 11.582 162.081 13.8818 162.081 16.5771V38.4619L158.565 40V25.1685H145.777V38.4619L142.262 40ZM145.777 21.6528H158.565V16.5112C158.551 14.7534 157.921 13.2593 156.676 12.0288C155.416 10.7837 153.915 10.1611 152.171 10.1611C150.414 10.1611 148.905 10.7837 147.645 12.0288C146.4 13.2593 145.777 14.7314 145.777 16.4453V16.5112V21.6528ZM175.682 40V10.7544H165.794L167.333 7.23877H189.085L187.547 10.7544H179.198V38.4619L175.682 40ZM91.7246 75V51.5771C91.7246 48.8818 92.6914 46.582 94.625 44.6777C96.5586 42.7588 98.895 41.7993 101.634 41.7993C104.374 41.7993 106.71 42.7588 108.644 44.6777C110.577 46.582 111.544 48.8818 111.544 51.5771V73.4619L108.028 75V60.1685H95.2402V73.4619L91.7246 75ZM95.2402 56.6528H108.028V51.5112C108.014 49.7534 107.384 48.2593 106.139 47.0288C104.879 45.7837 103.377 45.1611 101.634 45.1611C99.8765 45.1611 98.3677 45.7837 97.1079 47.0288C95.8628 48.2593 95.2402 49.7314 95.2402 51.4453V51.5112V56.6528ZM116.993 75V51.5771C116.993 48.8818 117.96 46.582 119.894 44.6777C121.827 42.7588 124.164 41.7993 126.903 41.7993C129.642 41.7993 131.979 42.7588 133.912 44.6777C135.846 46.582 136.812 48.8818 136.812 51.5771V73.4619L133.297 75V51.5112C133.282 49.7534 132.652 48.2593 131.407 47.0288C130.147 45.7837 128.646 45.1611 126.903 45.1611C125.145 45.1611 123.636 45.7837 122.376 47.0288C121.131 48.2593 120.509 49.7314 120.509 51.4453C120.509 51.4746 120.509 51.4966 120.509 51.5112V73.4619L116.993 75ZM144.129 42.2388H161.751L160.213 45.7544H153.929V71.0449H161.751L160.213 74.5605H142.591L144.129 71.0449H150.414V45.7544H142.591L144.129 42.2388ZM167.223 75V47.7759C167.223 46.1353 167.809 44.729 168.98 43.5571C170.152 42.3853 171.566 41.7993 173.221 41.7993C174.935 41.7993 176.349 42.3706 177.462 43.5132C178.634 42.3706 180.04 41.7993 181.681 41.7993C183.438 41.7993 184.867 42.3706 185.965 43.5132C187.079 44.6704 187.643 46.0986 187.657 47.7979V73.4619L184.142 75L184.164 47.8857C184.164 47.1533 183.922 46.5308 183.438 46.0181C182.955 45.5054 182.384 45.249 181.725 45.249C181.036 45.249 180.45 45.5054 179.967 46.0181C179.469 46.5454 179.22 47.1606 179.22 47.8638V47.8857L179.198 73.4619L175.682 75L175.704 47.8857C175.704 47.1533 175.462 46.5308 174.979 46.0181C174.496 45.5054 173.924 45.249 173.265 45.249C172.591 45.249 172.005 45.5054 171.507 46.0181C171.009 46.5308 170.76 47.1533 170.76 47.8857L170.738 73.4619L167.223 75ZM198.072 60.1685V71.0449H213.717L212.179 74.5605H194.557V43.7549L198.072 42.2168L210.86 42.2388L209.322 45.7544H198.072V56.6528H210.86L209.322 60.1685H198.072ZM234.393 51.5332C234.393 49.8047 233.771 48.3032 232.525 47.0288C231.28 45.7837 229.771 45.1611 227.999 45.1611C226.271 45.1611 224.769 45.7837 223.495 47.0288C222.235 48.2593 221.605 49.6948 221.605 51.3354C221.605 51.394 221.605 51.4526 221.605 51.5112V51.731L218.089 53.269V51.5771C218.089 48.9258 219.056 46.626 220.99 44.6777C222.894 42.7588 225.23 41.7993 227.999 41.7993C230.753 41.7993 233.089 42.7515 235.008 44.6558C236.913 46.5454 237.865 48.8818 237.865 51.665V51.709C237.865 54.4189 236.781 56.6968 234.613 58.5425C234.437 58.7915 232.665 59.8608 229.295 61.7505C228.446 62.2046 227.94 62.7979 227.779 63.5303C227.721 63.7061 227.721 64.1016 227.779 64.7168L224.264 66.2549C224.264 66.1377 224.286 65.0977 224.33 63.1348C224.359 61.4502 225.985 59.7363 229.208 57.9932C230.746 57.1582 231.859 56.4624 232.547 55.9058C233.778 54.9097 234.393 53.4521 234.393 51.5332ZM224.066 74.165C223.509 73.5938 223.231 72.9053 223.231 72.0996C223.231 71.2939 223.509 70.6128 224.066 70.0562C224.623 69.4849 225.296 69.1992 226.087 69.1992C226.878 69.1992 227.552 69.4849 228.109 70.0562C228.666 70.6128 228.944 71.2939 228.944 72.0996C228.944 72.9053 228.666 73.5938 228.109 74.165C227.552 74.7217 226.878 75 226.087 75C225.296 75 224.623 74.7217 224.066 74.165Z" fill="#F5DF4D"/>
<defs>
<clipPath id="clip0_62_1358">
<rect width="80" height="80" fill="white"/>
</clipPath>
</defs>
</svg>
